HIERARCHY
ROOT Pelvis
{
	OFFSET 0.000000 0.000000 0.000000
	CHANNELS 6 Xposition Yposition Zposition Xrotation Yrotation Zrotation
	JOINT LeftUpLeg_virtual
	{
		OFFSET 0.000000 0.000000 0.000000
		CHANNELS 3 Xrotation Yrotation Zrotation
		JOINT LeftUpLeg
		{
			OFFSET 18.735201 -5.666702 -4.541200
			CHANNELS 3 Xrotation Yrotation Zrotation
			JOINT LeftLeg
			{
				OFFSET -0.021200 -31.938179 0.493100
				CHANNELS 3 Xrotation Yrotation Zrotation
				JOINT LeftFoot
				{
					OFFSET 0.021200 -31.938179 -4.336299
					CHANNELS 3 Xrotation Yrotation Zrotation
					JOINT LeftToeBase
					{
						OFFSET 0.943001 -26.722000 15.023500
						CHANNELS 3 Xrotation Yrotation Zrotation
						End Site
						{
							OFFSET 0 0 0
						}
					}
				}
			}
		}
	}
	JOINT RightUpLeg_virtual
	{
		OFFSET 0.000000 0.000000 0.000000
		CHANNELS 3 Xrotation Yrotation Zrotation
		JOINT RightUpLeg
		{
			OFFSET -18.735201 -5.666702 -4.541200
			CHANNELS 3 Xrotation Yrotation Zrotation
			JOINT RightLeg
			{
				OFFSET 0.018946 -31.938133 0.493100
				CHANNELS 3 Xrotation Yrotation Zrotation
				JOINT RightFoot
				{
					OFFSET -0.018946 -31.938126 -4.336299
					CHANNELS 3 Xrotation Yrotation Zrotation
					JOINT RightToeBase
					{
						OFFSET -0.943001 -26.722004 15.023500
						CHANNELS 3 Xrotation Yrotation Zrotation
						End Site
						{
							OFFSET 0 0 0
						}
					}
				}
			}
		}
	}
	JOINT Hips_virtual
	{
		OFFSET 0.000000 0.000000 0.000000
		CHANNELS 3 Xrotation Yrotation Zrotation
		JOINT Hips
		{
			OFFSET -0.000000 -0.000000 -0.000000
			CHANNELS 3 Xrotation Yrotation Zrotation
			JOINT Spine
			{
				OFFSET 0.000000 10.199997 -0.299500
				CHANNELS 3 Xrotation Yrotation Zrotation
				JOINT Spine1
				{
					OFFSET 0.000000 11.900002 -1.516600
					CHANNELS 3 Xrotation Yrotation Zrotation
					JOINT Spine2
					{
						OFFSET 0.000000 13.600006 -2.842500
						CHANNELS 3 Xrotation Yrotation Zrotation
						JOINT Neck_virtual
						{
							OFFSET 0.000000 0.000000 0.000000
							CHANNELS 3 Xrotation Yrotation Zrotation
							JOINT Neck
							{
								OFFSET 0.000000 9.624100 -2.890100
								CHANNELS 3 Xrotation Yrotation Zrotation
								JOINT Head
								{
									OFFSET 0.000000 14.068802 -1.351900
									CHANNELS 3 Xrotation Yrotation Zrotation
									End Site
									{
										OFFSET 0 0 0
									}
								}
							}
						}
						JOINT LeftShoulder_virtual
						{
							OFFSET 0.000000 0.000000 0.000000
							CHANNELS 3 Xrotation Yrotation Zrotation
							JOINT LeftShoulder
							{
								OFFSET 15.263000 10.923401 -0.547700
								CHANNELS 3 Xrotation Yrotation Zrotation
								JOINT LeftArm
								{
									OFFSET 25.438599 -2.830597 -13.032500
									CHANNELS 3 Xrotation Yrotation Zrotation
									JOINT LeftForeArm
									{
										OFFSET 29.960503 0.000000 0.000000
										CHANNELS 3 Xrotation Yrotation Zrotation
										JOINT LeftHand
										{
											OFFSET 27.849251 0.000000 0.000000
											CHANNELS 3 Xrotation Yrotation Zrotation
											End Site
											{
												OFFSET 0 0 0
											}
										}
									}
								}
							}
						}
						JOINT RightShoulder_virtual
						{
							OFFSET 0.000000 0.000000 0.000000
							CHANNELS 3 Xrotation Yrotation Zrotation
							JOINT RightShoulder
							{
								OFFSET -15.263000 10.923401 -0.547700
								CHANNELS 3 Xrotation Yrotation Zrotation
								JOINT RightArm
								{
									OFFSET -25.438599 -2.830597 -13.032500
									CHANNELS 3 Xrotation Yrotation Zrotation
									JOINT RightForeArm
									{
										OFFSET -29.960503 0.000000 0.000000
										CHANNELS 3 Xrotation Yrotation Zrotation
										JOINT RightHand
										{
											OFFSET -27.849251 0.000000 0.000000
											CHANNELS 3 Xrotation Yrotation Zrotation
											End Site
											{
												OFFSET 0 0 0
											}
										}
									}
								}
							}
						}
					}
				}
			}
		}
	}
}
MOTION
Frames: 4
Frame Time: 0.03333333
1.377030 76.418915 67.802734 0.000000 0.000000 0.000000 156.447628 29.685023 -173.451766 -70.788463 -30.129091 21.575379 44.561889 -6.921812 -10.482060 -7.847196 -7.108780 -10.211213 0.000000 0.000000 0.000000 156.839093 28.410126 -174.288013 -35.833850 -12.331159 -9.435219 48.195007 -5.527312 -2.417485 -4.834035 11.467462 23.715373 0.000000 0.000000 0.000000 156.009840 30.757763 -174.014833 -0.744722 -0.226724 -0.070272 6.095504 7.782754 -7.521812 15.521598 10.729200 -6.939529 0.000000 0.000000 0.000000 15.458812 14.479718 -8.298050 4.267222 -5.423396 -0.501022 0.000000 0.000000 0.000000 17.489676 12.520143 -6.881326 -1.868854 13.107819 -11.452029 -14.389160 -12.901321 -53.477147 -33.712615 -16.940565 -16.941798 0.000000 0.000000 0.000000 14.742089 16.798159 -9.525667 -4.769870 6.798379 4.636291 -57.774596 29.454364 84.135616 33.891911 25.329022 -18.408893 0.000000 0.000000 0.000000 
1.997548 77.650620 67.004524 0.000000 0.000000 0.000000 154.854964 37.714297 -171.553028 -68.735875 -28.229694 24.666962 49.391830 -6.739527 -9.623540 -12.432659 -7.083100 -7.614419 0.000000 0.000000 0.000000 155.424055 36.728424 -172.818881 -40.728968 -10.040453 -11.096062 51.070837 -4.334702 -2.551864 -0.840573 13.381635 23.114426 0.000000 0.000000 0.000000 154.078727 39.588084 -171.727731 -0.729233 -0.253211 -0.078808 4.624903 7.869424 -6.912365 16.109051 9.758486 -7.029614 0.000000 0.000000 0.000000 15.528555 13.654957 -8.427367 5.008676 -4.845232 -0.064836 0.000000 0.000000 0.000000 18.009033 11.613929 -6.888124 -2.861511 12.074497 -12.072082 -19.511042 -14.213106 -53.528927 -29.180477 -17.424612 -15.027272 0.000000 0.000000 0.000000 14.401751 16.172380 -9.351448 -4.353400 6.745855 3.477537 -55.497152 23.338907 83.889319 37.830874 27.978700 -21.733669 0.000000 0.000000 0.000000 
2.529813 78.646049 65.956451 0.000000 0.000000 0.000000 152.595360 46.233294 -168.543032 -65.507607 -27.152934 26.671047 53.915792 -7.141895 -8.189058 -17.758801 -7.767809 -6.336502 0.000000 0.000000 0.000000 153.573921 45.910653 -170.347527 -44.759005 -6.659653 -11.901740 52.494628 -2.980569 -2.940217 3.192766 15.229807 23.108779 0.000000 0.000000 0.000000 151.862617 48.634615 -168.639051 -0.712513 -0.271305 -0.060369 3.699297 7.704439 -6.503193 16.597973 8.615898 -7.397471 0.000000 0.000000 0.000000 15.303705 12.691225 -8.734520 5.589107 -4.302038 0.273822 0.000000 0.000000 0.000000 18.025923 10.534574 -7.094468 -3.909237 11.014441 -12.032429 -24.410031 -15.464223 -51.955647 -24.674316 -17.596364 -13.027216 0.000000 0.000000 0.000000 14.174079 15.361382 -9.397852 -4.177913 5.757694 2.142614 -53.467411 17.818463 82.432044 42.590106 33.478357 -25.581656 0.000000 0.000000 0.000000 
2.850709 79.437309 64.493141 0.000000 0.000000 0.000000 148.680528 55.011399 -163.664446 -61.953067 -26.596892 27.955585 58.132416 -7.781351 -6.570058 -22.182986 -8.672951 -6.042443 0.000000 0.000000 0.000000 150.208018 55.391318 -165.975345 -47.764093 -3.330858 -12.216621 52.190903 -1.883840 -3.027047 5.818192 16.530385 23.566921 0.000000 0.000000 0.000000 148.254515 57.648176 -163.908120 -0.701170 -0.262550 -0.022705 3.405983 7.247440 -6.452094 16.837692 7.153314 -7.834076 0.000000 0.000000 0.000000 14.536915 11.487446 -8.975483 5.864000 -3.813163 0.529817 0.000000 0.000000 0.000000 17.559018 9.122623 -7.342848 -4.923293 10.011331 -11.437020 -28.775269 -16.854188 -49.127351 -20.369330 -17.026436 -10.934712 0.000000 0.000000 0.000000 13.996323 14.175478 -9.535451 -4.185246 3.814052 0.336362 -52.401973 13.167366 80.632944 48.302712 40.488747 -30.226517 0.000000 0.000000 0.000000 
